<?xml version="1.0" encoding="UTF-8" standalone="no"?><!DOCTYPE svg PUBLIC "-//W3C//DTD SVG 1.1//EN" "http://www.w3.org/Graphics/SVG/1.1/DTD/svg11.dtd"><!-- Generated by graphviz version 2.40.1 (20161225.0304)
 --><!-- Title: G Pages: 1 --><svg xmlns="http://www.w3.org/2000/svg" xmlns:xlink="http://www.w3.org/1999/xlink" width="1298pt" height="341pt" viewBox="0.00 0.00 1297.83 341.00">
<g id="graph0" class="graph" transform="scale(1 1) rotate(0) translate(4 337)">
<title>G</title>
<polygon fill="#ffffff" stroke="transparent" points="-4,4 -4,-337 1293.8282,-337 1293.8282,4 -4,4"/>
<!-- homepage -->
<g id="node1" class="node">
<title>homepage</title>
<path fill="none" stroke="#000000" d="M42,-90C42,-90 12,-90 12,-90 6,-90 0,-84 0,-78 0,-78 0,-66 0,-66 0,-60 6,-54 12,-54 12,-54 42,-54 42,-54 48,-54 54,-60 54,-66 54,-66 54,-78 54,-78 54,-84 48,-90 42,-90"/>
<text text-anchor="middle" x="27" y="-67.8" font-family="Times,serif" font-size="14.00" fill="#000000">Home</text>
</g>
<!-- welltable -->
<g id="node2" class="node">
<title>welltable</title>
<path fill="none" stroke="#000000" d="M247.3305,-144C247.3305,-144 193.1627,-144 193.1627,-144 187.1627,-144 181.1627,-138 181.1627,-132 181.1627,-132 181.1627,-120 181.1627,-120 181.1627,-114 187.1627,-108 193.1627,-108 193.1627,-108 247.3305,-108 247.3305,-108 253.3305,-108 259.3305,-114 259.3305,-120 259.3305,-120 259.3305,-132 259.3305,-132 259.3305,-138 253.3305,-144 247.3305,-144"/>
<text text-anchor="middle" x="220.2466" y="-121.8" font-family="Times,serif" font-size="14.00" fill="#000000">Well Table</text>
</g>
<!-- homepage&#45;&gt;welltable -->
<g id="edge1" class="edge">
<title>homepage-&gt;welltable</title>
<path fill="none" stroke="#000000" d="M54.2157,-85.8534C59.9926,-88.4657 66.1232,-91.0013 72,-93 104.2671,-103.9741 141.7443,-112.2793 170.9439,-117.8129"/>
<polygon fill="#000000" stroke="#000000" points="170.4351,-121.2781 180.9048,-119.6545 171.7077,-114.3947 170.4351,-121.2781"/>
<text text-anchor="middle" x="117.4776" y="-119.2" font-family="Times,serif" font-size="14.00" fill="#000000">View Well Data</text>
</g>
<!-- aboutus -->
<g id="node3" class="node">
<title>aboutus</title>
<path fill="none" stroke="#000000" d="M243.295,-90C243.295,-90 197.1982,-90 197.1982,-90 191.1982,-90 185.1982,-84 185.1982,-78 185.1982,-78 185.1982,-66 185.1982,-66 185.1982,-60 191.1982,-54 197.1982,-54 197.1982,-54 243.295,-54 243.295,-54 249.295,-54 255.295,-60 255.295,-66 255.295,-66 255.295,-78 255.295,-78 255.295,-84 249.295,-90 243.295,-90"/>
<text text-anchor="middle" x="220.2466" y="-67.8" font-family="Times,serif" font-size="14.00" fill="#000000">About Us</text>
</g>
<!-- homepage&#45;&gt;aboutus -->
<g id="edge2" class="edge">
<title>homepage-&gt;aboutus</title>
<path fill="none" stroke="#000000" d="M54.2777,-72C85.5653,-72 137.3562,-72 174.771,-72"/>
<polygon fill="#000000" stroke="#000000" points="174.9138,-75.5001 184.9137,-72 174.9137,-68.5001 174.9138,-75.5001"/>
<text text-anchor="middle" x="117.4776" y="-76.2" font-family="Times,serif" font-size="14.00" fill="#000000">About Us</text>
</g>
<!-- helppage -->
<g id="node4" class="node">
<title>helppage</title>
<path fill="none" stroke="#000000" d="M235.2466,-36C235.2466,-36 205.2466,-36 205.2466,-36 199.2466,-36 193.2466,-30 193.2466,-24 193.2466,-24 193.2466,-12 193.2466,-12 193.2466,-6 199.2466,0 205.2466,0 205.2466,0 235.2466,0 235.2466,0 241.2466,0 247.2466,-6 247.2466,-12 247.2466,-12 247.2466,-24 247.2466,-24 247.2466,-30 241.2466,-36 235.2466,-36"/>
<text text-anchor="middle" x="220.2466" y="-13.8" font-family="Times,serif" font-size="14.00" fill="#000000">Help</text>
</g>
<!-- homepage&#45;&gt;helppage -->
<g id="edge3" class="edge">
<title>homepage-&gt;helppage</title>
<path fill="none" stroke="#000000" d="M54.2275,-58.292C60.0035,-55.7036 66.1308,-53.1883 72,-51.2 108.8702,-38.7092 152.5043,-29.5854 182.8467,-24.0983"/>
<polygon fill="#000000" stroke="#000000" points="183.7516,-27.4929 192.992,-22.3096 182.5361,-20.5992 183.7516,-27.4929"/>
<text text-anchor="middle" x="117.4776" y="-56.2" font-family="Times,serif" font-size="14.00" fill="#000000">Help</text>
</g>
<!-- preview -->
<g id="node5" class="node">
<title>preview</title>
<path fill="none" stroke="#000000" d="M481.1543,-252C481.1543,-252 431.8805,-252 431.8805,-252 425.8805,-252 419.8805,-246 419.8805,-240 419.8805,-240 419.8805,-228 419.8805,-228 419.8805,-222 425.8805,-216 431.8805,-216 431.8805,-216 481.1543,-216 481.1543,-216 487.1543,-216 493.1543,-222 493.1543,-228 493.1543,-228 493.1543,-240 493.1543,-240 493.1543,-246 487.1543,-252 481.1543,-252"/>
<text text-anchor="middle" x="456.5174" y="-229.8" font-family="Times,serif" font-size="14.00" fill="#000000">Well Data</text>
</g>
<!-- welltable&#45;&gt;preview -->
<g id="edge4" class="edge">
<title>welltable-&gt;preview</title>
<path fill="none" stroke="#000000" d="M231.638,-144.2162C241.8617,-159.044 258.2089,-179.3592 277.538,-191 318.0756,-215.4134 371.6,-225.9709 409.5242,-230.5336"/>
<polygon fill="#000000" stroke="#000000" points="409.4592,-234.0477 419.7834,-231.6681 410.2287,-227.0901 409.4592,-234.0477"/>
<text text-anchor="middle" x="336.2435" y="-232.2" font-family="Times,serif" font-size="14.00" fill="#000000">Analyze Well Data</text>
</g>
<!-- create_well -->
<g id="node6" class="node">
<title>create_well</title>
<path fill="none" stroke="#000000" d="M486.2598,-198C486.2598,-198 426.775,-198 426.775,-198 420.775,-198 414.775,-192 414.775,-186 414.775,-186 414.775,-174 414.775,-174 414.775,-168 420.775,-162 426.775,-162 426.775,-162 486.2598,-162 486.2598,-162 492.2598,-162 498.2598,-168 498.2598,-174 498.2598,-174 498.2598,-186 498.2598,-186 498.2598,-192 492.2598,-198 486.2598,-198"/>
<text text-anchor="middle" x="456.5174" y="-175.8" font-family="Times,serif" font-size="14.00" fill="#000000">Create Well</text>
</g>
<!-- welltable&#45;&gt;create_well -->
<g id="edge5" class="edge">
<title>welltable-&gt;create_well</title>
<path fill="none" stroke="#000000" d="M259.4118,-141.3471C265.4292,-143.4159 271.6112,-145.3799 277.538,-147 319.7029,-158.5259 368.5643,-167.2318 404.5708,-172.7995"/>
<polygon fill="#000000" stroke="#000000" points="404.4274,-176.3177 414.8391,-174.3563 405.4767,-169.3968 404.4274,-176.3177"/>
<text text-anchor="middle" x="336.2435" y="-174.2" font-family="Times,serif" font-size="14.00" fill="#000000">Create New Well</text>
</g>
<!-- read_well -->
<g id="node7" class="node">
<title>read_well</title>
<path fill="none" stroke="#000000" d="M482.4951,-144C482.4951,-144 430.5397,-144 430.5397,-144 424.5397,-144 418.5397,-138 418.5397,-132 418.5397,-132 418.5397,-120 418.5397,-120 418.5397,-114 424.5397,-108 430.5397,-108 430.5397,-108 482.4951,-108 482.4951,-108 488.4951,-108 494.4951,-114 494.4951,-120 494.4951,-120 494.4951,-132 494.4951,-132 494.4951,-138 488.4951,-144 482.4951,-144"/>
<text text-anchor="middle" x="456.5174" y="-121.8" font-family="Times,serif" font-size="14.00" fill="#000000">Read Well</text>
</g>
<!-- welltable&#45;&gt;read_well -->
<g id="edge6" class="edge">
<title>welltable-&gt;read_well</title>
<path fill="none" stroke="#000000" d="M259.5271,-126C300.4662,-126 364.6571,-126 408.5617,-126"/>
<polygon fill="#000000" stroke="#000000" points="408.7074,-129.5001 418.7074,-126 408.7074,-122.5001 408.7074,-129.5001"/>
<text text-anchor="middle" x="336.2435" y="-130.2" font-family="Times,serif" font-size="14.00" fill="#000000">Read Well Details</text>
</g>
<!-- update_well -->
<g id="node8" class="node">
<title>update_well</title>
<path fill="none" stroke="#000000" d="M488.1543,-90C488.1543,-90 424.8805,-90 424.8805,-90 418.8805,-90 412.8805,-84 412.8805,-78 412.8805,-78 412.8805,-66 412.8805,-66 412.8805,-60 418.8805,-54 424.8805,-54 424.8805,-54 488.1543,-54 488.1543,-54 494.1543,-54 500.1543,-60 500.1543,-66 500.1543,-66 500.1543,-78 500.1543,-78 500.1543,-84 494.1543,-90 488.1543,-90"/>
<text text-anchor="middle" x="456.5174" y="-67.8" font-family="Times,serif" font-size="14.00" fill="#000000">Update Well</text>
</g>
<!-- welltable&#45;&gt;update_well -->
<g id="edge7" class="edge">
<title>welltable-&gt;update_well</title>
<path fill="none" stroke="#000000" d="M259.4208,-110.8128C265.437,-108.7618 271.6162,-106.8124 277.538,-105.2 318.8903,-93.9406 366.6566,-85.2936 402.4369,-79.6509"/>
<polygon fill="#000000" stroke="#000000" points="403.3177,-83.0563 412.6648,-78.068 402.2471,-76.1387 403.3177,-83.0563"/>
<text text-anchor="middle" x="336.2435" y="-109.2" font-family="Times,serif" font-size="14.00" fill="#000000">Update Well Details</text>
</g>
<!-- delete_well -->
<g id="node9" class="node">
<title>delete_well</title>
<path fill="none" stroke="#000000" d="M486.2598,-36C486.2598,-36 426.775,-36 426.775,-36 420.775,-36 414.775,-30 414.775,-24 414.775,-24 414.775,-12 414.775,-12 414.775,-6 420.775,0 426.775,0 426.775,0 486.2598,0 486.2598,0 492.2598,0 498.2598,-6 498.2598,-12 498.2598,-12 498.2598,-24 498.2598,-24 498.2598,-30 492.2598,-36 486.2598,-36"/>
<text text-anchor="middle" x="456.5174" y="-13.8" font-family="Times,serif" font-size="14.00" fill="#000000">Delete Well</text>
</g>
<!-- welltable&#45;&gt;delete_well -->
<g id="edge8" class="edge">
<title>welltable-&gt;delete_well</title>
<path fill="none" stroke="#000000" d="M250.4385,-107.8282C253.7407,-105.1173 256.8671,-102.1611 259.538,-99 271.8069,-84.4795 262.8044,-72.2121 277.538,-60.2 313.3123,-31.0338 365.7657,-21.3516 404.6481,-18.4485"/>
<polygon fill="#000000" stroke="#000000" points="404.9611,-21.9359 414.7252,-17.8236 404.5277,-14.9494 404.9611,-21.9359"/>
<text text-anchor="middle" x="336.2435" y="-64.2" font-family="Times,serif" font-size="14.00" fill="#000000">Delete Existing Well</text>
</g>
<!-- cooper_jacob -->
<g id="node10" class="node">
<title>cooper_jacob</title>
<path fill="none" stroke="#000000" d="M861.5904,-333C861.5904,-333 793.4174,-333 793.4174,-333 787.4174,-333 781.4174,-327 781.4174,-321 781.4174,-321 781.4174,-309 781.4174,-309 781.4174,-303 787.4174,-297 793.4174,-297 793.4174,-297 861.5904,-297 861.5904,-297 867.5904,-297 873.5904,-303 873.5904,-309 873.5904,-309 873.5904,-321 873.5904,-321 873.5904,-327 867.5904,-333 861.5904,-333"/>
<text text-anchor="middle" x="827.5039" y="-310.8" font-family="Times,serif" font-size="14.00" fill="#000000">Cooper Jacob</text>
</g>
<!-- preview&#45;&gt;cooper_jacob -->
<g id="edge9" class="edge">
<title>preview-&gt;cooper_jacob</title>
<path fill="none" stroke="#000000" d="M479.1739,-252.2061C490.2745,-260.1817 504.2162,-268.8751 518.0858,-274 602.4661,-305.1791 707.5246,-313.1618 770.96,-314.9213"/>
<polygon fill="#000000" stroke="#000000" points="771.0773,-318.4249 781.1566,-315.1602 771.2413,-311.4268 771.0773,-318.4249"/>
<text text-anchor="middle" x="621.3071" y="-316.2" font-family="Times,serif" font-size="14.00" fill="#000000">Perform Cooper Jacob Analysis</text>
</g>
<!-- theis -->
<g id="node11" class="node">
<title>theis</title>
<path fill="none" stroke="#000000" d="M862.6562,-279C862.6562,-279 792.3516,-279 792.3516,-279 786.3516,-279 780.3516,-273 780.3516,-267 780.3516,-267 780.3516,-255 780.3516,-255 780.3516,-249 786.3516,-243 792.3516,-243 792.3516,-243 862.6562,-243 862.6562,-243 868.6562,-243 874.6562,-249 874.6562,-255 874.6562,-255 874.6562,-267 874.6562,-267 874.6562,-273 868.6562,-279 862.6562,-279"/>
<text text-anchor="middle" x="827.5039" y="-256.8" font-family="Times,serif" font-size="14.00" fill="#000000">Theis Method</text>
</g>
<!-- preview&#45;&gt;theis -->
<g id="edge10" class="edge">
<title>preview-&gt;theis</title>
<path fill="none" stroke="#000000" d="M493.1043,-236.6628C557.8345,-241.3738 692.9783,-251.2094 770.1774,-256.8278"/>
<polygon fill="#000000" stroke="#000000" points="769.9859,-260.3231 780.2136,-257.5583 770.4941,-253.3415 769.9859,-260.3231"/>
<text text-anchor="middle" x="621.3071" y="-257.2" font-family="Times,serif" font-size="14.00" fill="#000000">Perform Theis Analysis</text>
</g>
<!-- theis_recovery -->
<g id="node12" class="node">
<title>theis_recovery</title>
<path fill="none" stroke="#000000" d="M891.2974,-225C891.2974,-225 763.7104,-225 763.7104,-225 757.7104,-225 751.7104,-219 751.7104,-213 751.7104,-213 751.7104,-201 751.7104,-201 751.7104,-195 757.7104,-189 763.7104,-189 763.7104,-189 891.2974,-189 891.2974,-189 897.2974,-189 903.2974,-195 903.2974,-201 903.2974,-201 903.2974,-213 903.2974,-213 903.2974,-219 897.2974,-225 891.2974,-225"/>
<text text-anchor="middle" x="827.5039" y="-202.8" font-family="Times,serif" font-size="14.00" fill="#000000">Theis Recovery Method</text>
</g>
<!-- preview&#45;&gt;theis_recovery -->
<g id="edge11" class="edge">
<title>preview-&gt;theis_recovery</title>
<path fill="none" stroke="#000000" d="M493.3334,-222.4535C501.4137,-220.3421 509.9784,-218.4226 518.0858,-217.2 592.9726,-205.9074 679.1617,-203.9559 741.5239,-204.4836"/>
<polygon fill="#000000" stroke="#000000" points="741.6742,-207.9854 751.7115,-204.5936 741.7499,-200.9858 741.6742,-207.9854"/>
<text text-anchor="middle" x="621.3071" y="-221.2" font-family="Times,serif" font-size="14.00" fill="#000000">Perform Theis Recovery Analysis</text>
</g>
<!-- combined_report -->
<g id="node14" class="node">
<title>combined_report</title>
<path fill="none" stroke="#000000" d="M900.4549,-171C900.4549,-171 754.5529,-171 754.5529,-171 748.5529,-171 742.5529,-165 742.5529,-159 742.5529,-159 742.5529,-147 742.5529,-147 742.5529,-141 748.5529,-135 754.5529,-135 754.5529,-135 900.4549,-135 900.4549,-135 906.4549,-135 912.4549,-141 912.4549,-147 912.4549,-147 912.4549,-159 912.4549,-159 912.4549,-165 906.4549,-171 900.4549,-171"/>
<text text-anchor="middle" x="827.5039" y="-148.8" font-family="Times,serif" font-size="14.00" fill="#000000">Generate Combined Report</text>
</g>
<!-- preview&#45;&gt;combined_report -->
<g id="edge15" class="edge">
<title>preview-&gt;combined_report</title>
<path fill="none" stroke="#000000" d="M488.9078,-215.8271C492.8373,-213.0815 496.6657,-210.1168 500.0858,-207 509.8883,-198.0669 506.513,-189.6777 518.0858,-183.2 583.0214,-146.8535 667.7614,-140.8975 732.1386,-143.1398"/>
<polygon fill="#000000" stroke="#000000" points="732.1515,-146.6434 742.2898,-143.5667 732.4457,-139.6496 732.1515,-146.6434"/>
<text text-anchor="middle" x="621.3071" y="-187.2" font-family="Times,serif" font-size="14.00" fill="#000000">Generate Combined Analysis Report</text>
</g>
<!-- generate_report -->
<g id="node13" class="node">
<title>generate_report</title>
<path fill="none" stroke="#000000" d="M1278.0724,-279C1278.0724,-279 1144.0972,-279 1144.0972,-279 1138.0972,-279 1132.0972,-273 1132.0972,-267 1132.0972,-267 1132.0972,-255 1132.0972,-255 1132.0972,-249 1138.0972,-243 1144.0972,-243 1144.0972,-243 1278.0724,-243 1278.0724,-243 1284.0724,-243 1290.0724,-249 1290.0724,-255 1290.0724,-255 1290.0724,-267 1290.0724,-267 1290.0724,-273 1284.0724,-279 1278.0724,-279"/>
<text text-anchor="middle" x="1211.0848" y="-256.8" font-family="Times,serif" font-size="14.00" fill="#000000">Generate Specific Report</text>
</g>
<!-- cooper_jacob&#45;&gt;generate_report -->
<g id="edge12" class="edge">
<title>cooper_jacob-&gt;generate_report</title>
<path fill="none" stroke="#000000" d="M873.9027,-311.0894C930.7857,-305.967 1030.0243,-295.9662 1114.3414,-282 1116.9921,-281.5609 1119.6798,-281.0972 1122.3901,-280.6134"/>
<polygon fill="#000000" stroke="#000000" points="1123.0814,-284.045 1132.2769,-278.7825 1121.8067,-277.162 1123.0814,-284.045"/>
<text text-anchor="middle" x="1022.4104" y="-308.2" font-family="Times,serif" font-size="14.00" fill="#000000">Generate Cooper Jacob Report</text>
</g>
<!-- theis&#45;&gt;generate_report -->
<g id="edge13" class="edge">
<title>theis-&gt;generate_report</title>
<path fill="none" stroke="#000000" d="M874.9232,-261C936.4051,-261 1044.8689,-261 1121.9573,-261"/>
<polygon fill="#000000" stroke="#000000" points="1122.1439,-264.5001 1132.1438,-261 1122.1438,-257.5001 1122.1439,-264.5001"/>
<text text-anchor="middle" x="1022.4104" y="-265.2" font-family="Times,serif" font-size="14.00" fill="#000000">Generate Theis Report</text>
</g>
<!-- theis_recovery&#45;&gt;generate_report -->
<g id="edge14" class="edge">
<title>theis_recovery-&gt;generate_report</title>
<path fill="none" stroke="#000000" d="M903.2728,-213.7563C961.2621,-219.4135 1043.1161,-228.4494 1114.3414,-240.2 1116.9912,-240.6372 1119.6782,-241.0985 1122.3879,-241.5794"/>
<polygon fill="#000000" stroke="#000000" points="1121.8044,-245.0307 1132.2727,-243.3982 1123.0712,-238.1463 1121.8044,-245.0307"/>
<text text-anchor="middle" x="1022.4104" y="-244.2" font-family="Times,serif" font-size="14.00" fill="#000000">Generate Theis Recovery Report</text>
</g>
</g>
</svg>